<?xml version="1.0" encoding="utf-8"?>
<!-- Generator: Adobe Illustrator 28.0.0, SVG Export Plug-In . SVG Version: 6.00 Build 0)  -->
<svg version="1.1" id="Layer_1" xmlns="http://www.w3.org/2000/svg" xmlns:xlink="http://www.w3.org/1999/xlink" x="0px" y="0px"
	 viewBox="0 0 841.89 595.28" style="enable-background:new 0 0 841.89 595.28;" xml:space="preserve">
<g>
	<path d="M760.26,251.5c-35.84,0-62.83,60.52-62.82,60.52h-3.21c13.12-28.22,15.47-63.99-10.81-63.99
		c-50.77,0-90.35,197.48-121.43,197.48c-10.17,0-8.88-20.08-0.13-44.34c9.09-25.2,21.29-60.97,41.08-116.81h-94.21
		c30.8-88.22,61.3-175.57,69.48-198.99c2.49-7.14,4.73-13.19,6.79-18.32c11.95-27.6,22.75-25.7,25.25-25.7
		c2.83,0,17.6,4.68,14.04,25.96c-5,28.18-27.85,27.29-39.03,62.38c-6.95,21.82,7.02,33.83,14.67,35.2
		c30.12,5.4,54.53-38.64,54.53-71.5c0-40.73-19.52-66.98-46.8-66.98c-51.48,0-73.49,48.35-86.41,84.21
		c-8.24,22.89-32.23,96.8-58.5,173.75h-38.71c8.05-91.26-32.76-173.94-104.4-198.34c-86.62-29.47-185.5,37.44-220.86,149.46
		c-5.15,16.32-8.67,32.72-10.66,48.88H52.53l-3.6,4.49h38.69c-9.82,93.01,31.15,178.04,103.96,202.82c2.93,1,5.89,1.89,8.85,2.67
		c-1.02-4.89-1.92-10.18-2.66-15.85c-0.62-0.18-1.24-0.38-1.85-0.59c-51.52-17.54-73.5-98.36-55.07-189.04h40.46
		c26.6,0.03,34.04,7.33,30.79,24.16L175.64,420.8l-0.25,0.76h3.71l37.66-111.29c7.42-16.15,16.97-21.39,44.83-21.43h108.77
		c-2.4,11.83-5.5,23.84-9.29,35.89c-21.83,69.14-61.62,122.57-102.93,145.02c-1.45,11.33-0.51,18.7,4.18,25.83
		c64.27-13.5,124.23-71.33,150.13-153.37c5.63-17.84,9.3-35.75,11.16-53.37h37.61c-19.69,57.58-40.51,116.33-56.84,156.21
		c-20.56,48.51-55.4,107.64-99.62,107.64c-50.29,0-62.45-58.21-62.45-93.46c5.75-73.61,65.56-75.39,65.56-107.48
		c0-14.67-10.93-17.25-15.05-17.25c-34.7,0-81.85,48.91-81.85,123.82c0,1.63,0.02,3.24,0.09,4.85c0.21,6.21,0.83,12.23,1.85,18.02
		c0.98,5.67,2.33,11.13,4.02,16.36c4.33,13.43,10.84,25.33,19.01,35.38c18.46,22.7,45.38,35.94,74.61,35.94
		c44.02,0,106.87-23.02,142.52-125.11c13.93-39.9,34-97.37,54.1-154.92h37.5c3.35,0,5.71,3.29,4.62,6.46
		c-8.99,26.17-31.71,92.26-41.37,120.07c-14.42,41.46,10.36,59.33,27.26,61.22c57.76,6.46,102.5-200.19,125.74-200.19
		c17.01,0-7.11,53.45-15.82,78.38c-8.7,24.94-44.78,117.15-44.78,117.15h48.49c0,0,35.96-102.99,48.84-139.9
		c0.85-2.44,1.7-4.93,2.51-7.45c12.31-30.78,36.91-61.09,56.23-61.09c8.21,0,9.82,7.48,9.88,9.84
		c0.45,20.97-35.45,29.32-43.77,53.51c-3.63,10.57,1.17,24.66,14.17,24.66c18.15,0,56.3-28.02,56.3-67.14
		C792.96,261.92,782.26,251.5,760.26,251.5z M371.24,284.36H267.09c-0.02,0-0.03,0-0.03,0c-31.49,0-35.15-13.03-29.42-35.8
		l32.52-96.11l0.25-0.76h-3.71L232.2,253.65c-8.73,20.42-19.43,30.71-48.22,30.71h-42.18c2.25-10.38,5.03-20.87,8.36-31.4
		C183.11,148.55,257.04,79.98,315.28,99.8C365.95,117.05,388.05,195.5,371.24,284.36z"/>
	<path d="M576.97,271.48l2.17,0.76l0.19-0.54c14.85-41.34,24.34-41.34,59.65-41.34h0.58v-2.31h-0.58c-22.6,0-32.31-1.84-35.82-6.77
		c-3.75-5.29-0.68-15.24,4.82-30.99l1.23-3.52l-2.17-0.77l-0.19,0.54c-14.89,41.52-23.49,41.52-59.7,41.52h-0.58v2.31h0.58
		c17.87,0,29.07,1.19,33.43,7.3c3.83,5.35,2.83,15-3.42,33.27L576.97,271.48z"/>
</g>
</svg>
